<svg height="512" viewBox="0 0 512 512" width="512" xmlns="http://www.w3.org/2000/svg"><g id="Cannabis_Drink" data-name="Cannabis Drink"><g id="Filled"><path d="m128 208 32 296h192l32-296z" fill="#ffd740"/><path d="m160 504h192l21.178-195.893a378.989 378.989 0 0 1 -222.195 112.493z" fill="#ffc400"/><path d="m240 8h32v152h-32z" fill="#ffd740"/><path d="m240 119.832v48.168h32v-62.5a51.8 51.8 0 0 1 -32 14.332z" fill="#ffc400"/><path d="m128 160h256a16 16 0 0 1 16 16v32a0 0 0 0 1 0 0h-288a0 0 0 0 1 0 0v-32a16 16 0 0 1 16-16z" fill="#ffe7a4"/><path d="m280 376.108s58.742-19.738 64.029-72.108c-48 8-72 40-72 40s14.642-52.411-16.015-104c-30.657 51.589-16.014 104-16.014 104s-23.971-32-72-40c5.287 52.37 64.029 72.108 64.029 72.108-41.97 9.233-55.479 47.172-56 47.533 0 0 54.257 5.748 79.971-28.74h.029c25.714 34.488 80 28.74 80 28.74-.522-.361-14.059-38.3-56.029-47.533z" fill="#5fc4b8"/><path d="m280 376.108s58.742-19.738 64.029-72.108a124.38 124.38 0 0 0 -32.231 9.973 132.054 132.054 0 0 1 -120.521 85.984 90.6 90.6 0 0 0 -15.248 23.684s54.257 5.748 79.971-28.741h.029c25.714 34.488 80 28.74 80 28.74-.522-.36-14.059-38.299-56.029-47.532z" fill="#50b5a6"/><g fill="#97e5de"><circle cx="216.029" cy="344" r="16"/><circle cx="248.029" cy="360" r="8"/><circle cx="215.999" cy="344" r="16"/><circle cx="247.999" cy="360" r="8"/></g><circle cx="128" cy="176" fill="#fff" r="16"/><circle cx="160" cy="192" fill="#fff" r="8"/><circle cx="160" cy="248" fill="#ffe7a4" r="16"/><circle cx="192" cy="264" fill="#ffe7a4" r="8"/></g><g id="Outline"><path d="m381.4 232.046a8 8 0 0 0 -8.813 7.095l-27.769 256.859h-177.636l-27.768-256.859a8 8 0 0 0 -15.908 1.718l28.54 264a8 8 0 0 0 7.954 7.141h192a8 8 0 0 0 7.954-7.141l28.54-264a8 8 0 0 0 -7.094-8.813z"/><path d="m384 152h-168a8 8 0 0 0 0 16h168a8.009 8.009 0 0 1 8 8v24h-272v-24a8.009 8.009 0 0 1 8-8h24a8 8 0 0 0 0-16h-24a24.028 24.028 0 0 0 -24 24v32a8 8 0 0 0 8 8h288a8 8 0 0 0 8-8v-32a24.028 24.028 0 0 0 -24-24z"/><path d="m240 136a8 8 0 0 0 8-8v-112h16v112a8 8 0 0 0 16 0v-120a8 8 0 0 0 -8-8h-32a8 8 0 0 0 -8 8v120a8 8 0 0 0 8 8z"/><path d="m160.04 304.8c3.777 37.41 31.527 59.367 50.806 70.258-19.037 9.36-33.117 25.493-41.8 44.667a7.992 7.992 0 0 0 -.774 5.887c1.769 6.941 9.142 6.405 16.854 6.405 14.425 0 41.629-2.37 62.869-18.058v42.041a8 8 0 0 0 16 0v-42.053c29.6 21.885 70.829 17.867 72.872 17.649 4.837-.512 9.1-5.373 5.985-12.2-5.694-12.55-18.022-32.71-41.672-44.336 19.277-10.891 47.027-32.848 50.8-70.258a8 8 0 0 0 -9.275-8.7 131.306 131.306 0 0 0 -59.405 25.94c1.276-21.231-1.138-53.7-20.406-86.129a8 8 0 1 0 -13.754 8.174c28.434 47.85 15.318 97.282 15.186 97.761-2.36 8.449 8.768 13.974 14.091 6.971.2-.268 18.99-24.517 55.483-34.428-11.167 38.319-55.964 53.969-56.446 54.133-7.668 2.575-7.066 13.66.829 15.4 23.014 5.063 36.773 19.647 44.554 31.975-16.314-.6-44.78-4.838-60.392-25.778a8.034 8.034 0 0 0 -12.856 0c-15.615 20.943-44.071 25.181-60.372 25.779 7.771-12.327 21.52-26.913 44.533-31.976 7.868-1.731 8.5-12.792.842-15.393-.493-.168-45.292-15.82-56.459-54.139 36.512 9.909 55.276 34.157 55.467 34.407 5.252 7.019 16.451 1.575 14.111-6.933-.042-.154-4.217-15.637-2.969-37.4.6-10.567-15.368-11.491-15.974-.916a159.778 159.778 0 0 0 .014 18.531 131.238 131.238 0 0 0 -59.466-25.965 8 8 0 0 0 -9.276 8.684z"/><circle cx="240.029" cy="272" r="8"/><circle cx="184" cy="160" r="8"/></g></g></svg>